<?xml version="1.0" standalone="no"?>
<!DOCTYPE svg PUBLIC "-//W3C//DTD SVG 20010904//EN"
 "http://www.w3.org/TR/2001/REC-SVG-20010904/DTD/svg10.dtd">
<svg version="1.0" xmlns="http://www.w3.org/2000/svg"
 width="618.000000pt" height="618.000000pt" viewBox="0 0 618.000000 618.000000"
 preserveAspectRatio="xMidYMid meet">
<metadata>
Created by potrace 1.14, written by Peter Selinger 2001-2017
</metadata>
<g transform="translate(0.000000,618.000000) scale(0.100000,-0.100000)"
fill="#000000" stroke="none">
<path d="M2888 5203 c-126 -42 -228 -125 -228 -185 0 -37 48 -88 83 -88 13 0
42 12 63 26 57 39 94 52 138 48 105 -10 177 -115 146 -217 -9 -32 -52 -82
-208 -241 -213 -217 -237 -252 -268 -383 -62 -263 107 -539 371 -608 73 -18
193 -19 260 -1 118 31 251 123 261 179 6 37 -19 82 -54 96 -32 13 -43 10 -142
-45 -139 -78 -295 81 -221 224 11 20 95 111 186 202 182 179 235 249 265 348
59 192 12 381 -130 522 -139 138 -338 185 -522 123z"/>
<path d="M1487 3322 c-27 -28 -28 -33 -26 -124 1 -52 5 -119 10 -149 5 -30 11
-70 14 -89 9 -60 53 -212 85 -295 41 -104 108 -228 181 -336 64 -93 222 -266
288 -314 22 -16 41 -32 41 -35 0 -3 -208 -6 -462 -5 -255 0 -478 -3 -497 -7
-76 -15 -131 -84 -131 -163 0 -47 6 -60 61 -141 99 -143 198 -255 244 -274 37
-16 164 -17 1805 -16 1656 1 1767 2 1797 19 65 35 275 313 291 384 19 83 -41
173 -126 189 -26 5 -254 9 -507 9 l-461 -1 56 47 c30 25 89 82 132 127 l76 81
238 2 c188 2 252 6 305 19 184 48 331 185 395 370 15 43 19 82 19 175 -1 108
-4 127 -29 190 -69 169 -191 282 -367 342 -51 17 -141 18 -1729 21 l-1676 3
-27 -29z m3400 -168 c90 -31 157 -85 206 -167 124 -205 33 -467 -193 -557 -49
-20 -76 -23 -237 -25 l-181 -2 53 101 c95 181 164 409 181 597 l7 76 58 -4
c33 -2 80 -10 106 -19z"/>
</g>
</svg>
